<?xml version="1.0" encoding="UTF-8" standalone="no"?>
<!-- Created with Inkscape (http://www.inkscape.org/) -->

<svg
   width="67.292671mm"
   height="15.756605mm"
   viewBox="0 0 67.292671 15.756605"
   version="1.1"
   id="svg1"
   sodipodi:docname="logoNEW.svg"
   inkscape:version="1.3.2 (091e20e, 2023-11-25, custom)"
   xmlns:inkscape="http://www.inkscape.org/namespaces/inkscape"
   xmlns:sodipodi="http://sodipodi.sourceforge.net/DTD/sodipodi-0.dtd"
   xmlns="http://www.w3.org/2000/svg"
   xmlns:svg="http://www.w3.org/2000/svg">
  <sodipodi:namedview
     id="namedview1"
     pagecolor="#ffffff"
     bordercolor="#000000"
     borderopacity="0.25"
     inkscape:showpageshadow="2"
     inkscape:pageopacity="0.0"
     inkscape:pagecheckerboard="0"
     inkscape:deskcolor="#d1d1d1"
     inkscape:document-units="mm"
     showguides="true"
     inkscape:zoom="0.70710678"
     inkscape:cx="215.66757"
     inkscape:cy="201.52543"
     inkscape:window-width="1920"
     inkscape:window-height="1057"
     inkscape:window-x="1912"
     inkscape:window-y="-8"
     inkscape:window-maximized="1"
     inkscape:current-layer="layer1" />
  <defs
     id="defs1">
    <linearGradient
       id="swatch61"
       inkscape:swatch="solid">
      <stop
         style="stop-color:#ffffff;stop-opacity:1;"
         offset="0"
         id="stop61" />
    </linearGradient>
    <inkscape:path-effect
       effect="fillet_chamfer"
       id="path-effect8-0-4-8-1-8"
       is_visible="true"
       lpeversion="1"
       nodesatellites_param="F,0,0,1,0,0,0,1 @ F,0,0,1,0,0,0,1 @ F,0,0,1,0,0,0,1 @ F,0,0,1,0,0,0,1 @ F,0,0,1,0,0,0,1 @ F,0,0,1,0,0,0,1 @ F,0,0,1,0,0,0,1 @ F,0,0,1,0,0,0,1 @ F,0,0,1,0,0,0,1 @ F,0,0,1,0,0,0,1 @ F,0,0,1,0,0,0,1 @ F,0,0,1,0,0,0,1 @ F,0,0,1,0,0,0,1 @ F,0,0,1,0,0,0,1 @ F,0,0,1,0,0,0,1 @ F,0,0,1,0,0,0,1 @ F,0,0,1,0,0.8045907,0,1 @ F,0,0,1,0,0,0,1 @ F,0,0,1,0,0,0,1 @ F,0,0,1,0,0,0,1 @ F,0,0,1,0,0,0,1 @ F,0,0,1,0,0,0,1 | F,0,0,1,0,0,0,1 @ F,0,0,1,0,0,0,1 @ F,0,0,1,0,0.8045909,0,1 @ F,0,0,1,0,0,0,1 | F,0,0,1,0,0,0,1 @ F,0,0,1,0,0,0,1 @ F,0,0,1,0,0,0,1 @ F,0,0,1,0,0,0,1 @ F,0,0,1,0,0,0,1 @ F,0,0,1,0,0,0,1 @ F,0,0,1,0,0,0,1 @ F,0,0,1,0,0,0,1 @ F,0,0,1,0,0,0,1 @ F,0,0,1,0,0,0,1 @ F,0,0,1,0,0,0,1 @ F,0,0,1,0,0,0,1 @ F,0,0,1,0,0,0,1 | F,0,0,1,0,0,0,1 @ F,0,0,1,0,0,0,1 @ F,0,0,1,0,0,0,1 @ F,0,0,1,0,0,0,1 @ F,0,0,1,0,0,0,1 @ F,0,0,1,0,0,0,1 @ F,0,0,1,0,0.804591,0,1 @ F,0,0,1,0,0,0,1 @ F,0,0,1,0,0,0,1 @ F,0,0,1,0,0,0,1 @ F,0,0,1,0,0,0,1 @ F,0,0,1,0,0,0,1 @ F,0,0,1,0,0,0,1 @ F,0,0,1,0,0,0,1 @ F,0,0,1,0,0,0,1 @ F,0,0,1,0,0,0,1 @ F,0,0,1,0,0,0,1 @ F,0,0,1,0,0.804591,0,1 | F,0,0,1,0,0,0,1 @ F,0,0,1,0,0,0,1 @ F,0,0,1,0,0,0,1 @ F,0,0,1,0,0,0,1 @ F,0,0,1,0,0,0,1 @ F,0,0,1,0,0,0,1 @ F,0,0,1,0,0,0,1 @ F,0,0,1,0,0,0,1 @ F,0,0,1,0,0,0,1 @ F,0,0,1,0,0,0,1 | F,0,0,1,0,0,0,1 @ F,0,0,1,0,0.748194,0,1 @ F,0,0,1,0,0,0,1 @ F,0,0,1,0,0,0,1 @ F,0,0,1,0,0,0,1 @ F,0,0,1,0,0,0,1 @ F,0,0,1,0,0,0,1 @ F,0,0,1,0,0,0,1 @ F,0,0,1,0,0,0,1 @ F,0,0,1,0,0,0,1 @ F,0,0,1,0,0,0,1 @ F,0,0,1,0,0,0,1 @ F,0,0,1,0,0,0,1 @ F,0,0,1,0,0,0,1 @ F,0,0,1,0,0,0,1 @ F,0,0,1,0,0,0,1 @ F,0,0,1,0,0,0,1 | F,0,0,1,0,0,0,1 @ F,0,0,1,0,0,0,1 @ F,0,0,1,0,0,0,1 @ F,0,0,1,0,0,0,1 @ F,0,0,1,0,0,0,1 @ F,0,0,1,0,0,0,1 @ F,0,0,1,0,0.804591,0,1 @ F,0,0,1,0,0,0,1 @ F,0,0,1,0,0,0,1 @ F,0,0,1,0,0,0,1 @ F,0,0,1,0,0,0,1 @ F,0,0,1,0,0,0,1 @ F,0,0,1,0,0,0,1 @ F,0,0,1,0,0.804591,0,1 @ F,0,0,1,0,0,0,1 @ F,0,0,1,0,0,0,1 @ F,0,0,1,0,0,0,1 @ F,0,0,1,0,0,0,1 @ F,0,0,1,0,0,0,1 @ F,0,0,1,0,0,0,1 @ F,0,0,1,0,0,0,1 @ F,0,0,1,0,0,0,1 @ F,0,0,1,0,0,0,1 @ F,0,0,1,0,0,0,1 @ F,0,0,1,0,0,0,1 @ F,0,0,1,0,0,0,1 @ F,0,0,1,0,0,0,1 @ F,0,0,1,0,0.804599,0,1 | F,0,0,1,0,0,0,1 @ F,0,0,1,0,0,0,1 @ F,0,0,1,0,0,0,1 @ F,0,0,1,0,0,0,1 @ F,0,0,1,0,0,0,1 @ F,0,0,1,0,0,0,1 @ F,0,0,1,0,0,0,1 @ F,0,0,1,0,0,0,1 @ F,0,0,1,0,0.804591,0,1 @ F,0,0,1,0,0,0,1 @ F,0,0,1,0,0,0,1 @ F,0,0,1,0,0,0,1 @ F,0,0,1,0,0,0,1 @ F,0,0,1,0,0,0,1 @ F,0,0,1,0,0,0,1 @ F,0,0,1,0,0,0,1 @ F,0,0,1,0,0,0,1 | F,0,0,1,0,0,0,1 @ F,0,0,1,0,0,0,1 @ F,0,0,1,0,0,0,1 @ F,0,0,1,0,0,0,1 @ F,0,0,1,0,0,0,1 @ F,0,0,1,0,0,0,1 @ F,0,0,1,0,0,0,1 @ F,0,0,1,0,0,0,1 @ F,0,0,1,0,0,0,1 @ F,0,0,1,0,0,0,1 @ F,0,0,1,0,0,0,1 @ F,0,0,1,0,0,0,1 @ F,0,0,1,0,0,0,1 @ F,0,0,1,0,0,0,1 @ F,0,0,1,0,0,0,1 @ F,0,0,1,0,0,0,1 @ F,0,0,1,0,0,0,1 @ F,0,0,1,0,0,0,1 @ F,0,0,1,0,0,0,1 @ F,0,0,1,0,0,0,1 @ F,0,0,1,0,0,0,1 @ F,0,0,1,0,0,0,1 @ F,0,0,1,0,0,0,1 @ F,0,0,1,0,0,0,1 @ F,0,0,1,0,0,0,1 @ F,0,0,1,0,0,0,1 @ F,0,0,1,0,0,0,1 @ F,0,0,1,0,0,0,1 @ F,0,0,1,0,0,0,1 @ F,0,0,1,0,0,0,1 @ F,0,0,1,0,0,0,1"
       radius="0"
       unit="px"
       method="auto"
       mode="F"
       chamfer_steps="1"
       flexible="false"
       use_knot_distance="true"
       apply_no_radius="true"
       apply_with_radius="true"
       only_selected="false"
       hide_knots="false" />
  </defs>
  <g
     inkscape:label="Capa 1"
     inkscape:groupmode="layer"
     id="layer1"
     inkscape:export-filename="layer1.png"
     inkscape:export-xdpi="400"
     inkscape:export-ydpi="400"
     transform="translate(-0.40500001,-125.5)">
    <g
       id="g58-6-7-6"
       transform="matrix(2.5283936,0,0,2.5283936,-0.0578173,72.189607)"
       inkscape:label="testB&amp;W">
      <g
         id="g57-2-5-5-0-7"
         inkscape:label="logoNoBG"
         transform="translate(0.16136456,21.050699)"
         inkscape:export-filename="NEWlogo"
         inkscape:export-xdpi="300"
         inkscape:export-ydpi="300">
        <path
           style="font-style:italic;font-weight:900;font-size:3.75977px;font-family:'LT Streak';-inkscape-font-specification:'LT Streak, Heavy Italic';fill:#ffffff;fill-opacity:1;stroke-width:0.313808;paint-order:fill markers stroke"
           d="m 8.7441204,3.2973031 c 0.017546,-0.102767 0.051383,-0.1992677 0.1015137,-0.2895022 0.052637,-0.092741 0.1203127,-0.1729494 0.2030276,-0.2406253 0.082715,-0.067676 0.180469,-0.1203127 0.2932621,-0.1579104 0.1127931,-0.040104 0.239372,-0.060156 0.3797367,-0.060156 0.077702,0 0.1616701,0.00627 0.2519046,0.018799 0.092741,0.010026 0.1666839,0.021305 0.2218269,0.033838 l -0.116553,0.5075689 c -0.01504,-0.012533 -0.04512,-0.022559 -0.090235,-0.030078 -0.045117,-0.010026 -0.092741,-0.015039 -0.1428713,-0.015039 -0.087728,0 -0.1579103,0.026318 -0.2105471,0.078955 -0.05013,0.052637 -0.081461,0.1203125 -0.093994,0.2030275 l -0.00752,0.037598 H 9.9246881 L 9.8419732,3.8575089 H 9.4509571 L 9.2231443,5.140699 A 0.96001635,0.96001635 140.03359 0 1 8.2779089,5.9329018 L 8.6463663,3.8575089 H 8.3831824 l 0.082715,-0.4737311 h 0.2631839 z m 1.3798386,0.086475 H 10.92855 L 10.764131,4.3134569 A 0.95937348,0.95937348 140.01469 0 1 9.8194181,5.1057525 Z M 10.545054,3.270985 c -0.07018,0 -0.130339,-0.010026 -0.180469,-0.030078 -0.05013,-0.020052 -0.09149,-0.04637 -0.124073,-0.078955 -0.03008,-0.032585 -0.05139,-0.070182 -0.06392,-0.1127931 -0.01003,-0.042611 -0.01129,-0.085221 -0.0038,-0.1278322 0.01755,-0.087728 0.06768,-0.1654298 0.150391,-0.2331057 0.08272,-0.067676 0.196762,-0.1015138 0.342139,-0.1015138 0.140365,0 0.241879,0.033838 0.304542,0.1015138 0.06266,0.067676 0.08522,0.1453778 0.06768,0.2331057 -0.0075,0.042611 -0.02507,0.085221 -0.05264,0.1278322 -0.02507,0.042611 -0.05891,0.080208 -0.101514,0.1127931 -0.04011,0.032585 -0.08898,0.058903 -0.146631,0.078955 -0.05765,0.020052 -0.121569,0.030078 -0.191748,0.030078 z m 1.500145,1.8347678 0.176709,-1.0038586 c 0.01253,-0.072689 0.0063,-0.1228191 -0.0188,-0.1503908 -0.02507,-0.030078 -0.05765,-0.045117 -0.09775,-0.045117 -0.02757,0 -0.0564,0.00877 -0.08647,0.026318 -0.02757,0.015039 -0.05515,0.036345 -0.08272,0.063916 l -0.05584,0.3167572 a 0.95882149,0.95882149 139.99845 0 1 -0.944264,0.792375 L 11.24061,3.3837779 h 0.804591 l -0.03008,0.1654299 c 0.117806,-0.065169 0.226839,-0.1152996 0.3271,-0.1503908 0.102767,-0.035091 0.194254,-0.052637 0.274463,-0.052637 0.07269,0 0.139111,0.011279 0.199268,0.033838 0.06266,0.022559 0.114043,0.058903 0.15415,0.1090333 0.04261,0.047624 0.07144,0.1102868 0.08648,0.1879885 0.01755,0.077702 0.01628,0.1716962 -0.0038,0.2819827 l -0.06275,0.3544564 a 0.95952742,0.95952742 140.01919 0 1 -0.944838,0.7922739 z m 2.346098,-1.2820816 c -0.0777,0 -0.147884,0.037598 -0.210547,0.1127931 -0.06266,0.072689 -0.107777,0.1867353 -0.135352,0.3421391 -0.02256,0.1278322 -0.02129,0.224333 0.0038,0.2895023 0.02507,0.065169 0.06768,0.097754 0.127832,0.097754 0.0376,0 0.07269,-0.010026 0.105274,-0.030078 0.03259,-0.022559 0.06643,-0.051384 0.101514,-0.086475 L 14.50785,3.8537491 c -0.01504,-0.00752 -0.03259,-0.013786 -0.05264,-0.018799 -0.01755,-0.00752 -0.03885,-0.011279 -0.06392,-0.011279 z m 1.13921,-1.2369643 -0.311186,1.7820054 A 0.89017099,0.89017099 139.95275 0 1 14.34242,5.1057528 l -0.0038,-0.1579104 c -0.0777,0.065169 -0.15791,0.1140464 -0.240625,0.1466311 -0.08271,0.032585 -0.172949,0.048877 -0.270703,0.048877 -0.120313,0 -0.22308,-0.023812 -0.308302,-0.071436 -0.08522,-0.047624 -0.15415,-0.1115401 -0.206787,-0.1917482 -0.05013,-0.080209 -0.08272,-0.1729495 -0.09775,-0.278223 -0.01504,-0.1052735 -0.01254,-0.2155601 0.0075,-0.3308598 0.02256,-0.1278321 0.06517,-0.2481448 0.127832,-0.3609379 0.06266,-0.1127931 0.144122,-0.2105471 0.244385,-0.293262 0.100261,-0.082715 0.216813,-0.1478843 0.349658,-0.1955081 0.132845,-0.05013 0.28073,-0.075195 0.443653,-0.075195 0.04261,0 0.08021,0.00251 0.112793,0.00752 0.03259,0.00251 0.06266,0.00627 0.09023,0.011279 l 0.135352,-0.7782724 z m 2.000196,2.5190459 0.176709,-1.0038586 c 0.01253,-0.072689 0.0075,-0.1228191 -0.01504,-0.1503908 -0.02256,-0.030078 -0.05138,-0.045117 -0.08647,-0.045117 -0.02507,0 -0.04888,0.00501 -0.07144,0.015039 -0.02256,0.010026 -0.04512,0.022559 -0.06768,0.037598 l -0.06275,0.354459 a 0.9595519,0.9595519 140.01993 0 1 -0.944858,0.7922701 l 0.176709,-1.0038586 c 0.01253,-0.072689 0.0075,-0.1228191 -0.01504,-0.1503908 -0.02256,-0.030078 -0.05139,-0.045117 -0.08648,-0.045117 -0.02507,0 -0.04888,0.00501 -0.07144,0.015039 -0.02256,0.010026 -0.04512,0.022559 -0.06768,0.037598 l -0.06276,0.3544605 A 0.95955673,0.95955673 140.02007 0 1 15.387619,5.105753 l 0.304542,-1.7219747 h 0.804591 l -0.03008,0.1654299 c 0.1153,-0.065169 0.220574,-0.1152996 0.315821,-0.1503908 0.09775,-0.035091 0.186735,-0.052637 0.266944,-0.052637 0.09274,0 0.174202,0.020052 0.244385,0.060156 0.07269,0.040104 0.125325,0.1040201 0.15791,0.1917482 0.263184,-0.1679364 0.486264,-0.2519046 0.669239,-0.2519046 0.07018,0 0.134099,0.011279 0.191748,0.033838 0.06015,0.022559 0.110284,0.058903 0.150391,0.1090333 0.04011,0.047624 0.06768,0.1102868 0.08272,0.1879885 0.01504,0.077702 0.01254,0.1716962 -0.0075,0.2819827 l -0.06276,0.3544527 a 0.95956676,0.95956676 140.02006 0 1 -0.944871,0.7922776 z m 2.13931,-1.7219747 -0.176709,1.0038586 c -0.01253,0.072689 -0.0063,0.1240724 0.0188,0.1541506 0.02507,0.027571 0.05765,0.041357 0.09775,0.041357 0.02757,0 0.05514,-0.00752 0.08271,-0.022559 0.03008,-0.017545 0.0589,-0.040104 0.08647,-0.067676 l 0.195508,-1.1091322 h 0.804591 l -0.164419,0.929679 a 0.95937357,0.95937357 140.01469 0 1 -0.944713,0.7922957 l 0.03008,-0.1691897 c -0.238119,0.1378583 -0.43864,0.2067874 -0.601563,0.2067874 -0.07269,0 -0.140365,-0.011279 -0.203028,-0.033838 C 18.83283,5.0869528 18.780193,5.0518617 18.73758,5.004238 18.697473,4.954108 18.6699,4.8901919 18.65486,4.8124897 18.63982,4.7347878 18.64232,4.6407935 18.66236,4.530507 l 0.203027,-1.1467299 z m 2.049076,0.4812506 c -0.0025,0.017545 0.01376,0.035091 0.04888,0.052637 0.03509,0.015039 0.07896,0.032585 0.131592,0.052637 0.05515,0.020052 0.112797,0.045117 0.17295,0.075195 0.06266,0.030078 0.119056,0.067676 0.169189,0.112793 0.05013,0.045117 0.08773,0.1015139 0.112793,0.1691897 0.02757,0.065169 0.03259,0.1441245 0.01504,0.2368655 -0.03008,0.1729494 -0.124074,0.3133141 -0.281982,0.4210942 -0.155404,0.1052736 -0.369711,0.1579104 -0.642921,0.1579104 -0.120313,0 -0.245638,-0.011279 -0.375977,-0.033838 -0.130339,-0.020052 -0.248145,-0.05013 -0.353418,-0.090234 l 0.124072,-0.4850104 c 0.08021,0.035091 0.167937,0.066423 0.263184,0.093994 0.09525,0.025065 0.190495,0.037598 0.285742,0.037598 0.08272,0 0.136606,-0.00877 0.161671,-0.026318 0.02507,-0.017545 0.03885,-0.032584 0.04136,-0.045117 0.005,-0.022559 -0.01004,-0.042611 -0.04512,-0.060156 -0.03509,-0.017545 -0.07896,-0.037597 -0.131592,-0.060156 -0.05264,-0.025065 -0.109037,-0.052637 -0.16919,-0.082715 -0.06015,-0.030078 -0.115297,-0.067676 -0.16543,-0.1127931 -0.04762,-0.047624 -0.08522,-0.1040206 -0.112793,-0.1691897 -0.02507,-0.067676 -0.02883,-0.1478842 -0.01128,-0.2406252 0.03008,-0.1704429 0.120314,-0.2995284 0.270703,-0.3872563 0.152897,-0.090234 0.357178,-0.1353518 0.612843,-0.1353518 0.127832,0 0.250651,0.011279 0.368457,0.033838 0.117807,0.020052 0.213054,0.05013 0.285743,0.090234 l -0.124073,0.4850103 c -0.06266,-0.035091 -0.140362,-0.06517 -0.233105,-0.090235 -0.09023,-0.027571 -0.182976,-0.041357 -0.278223,-0.041357 -0.05515,0 -0.09149,0.00501 -0.109034,0.015039 -0.01755,0.00752 -0.02757,0.016292 -0.03008,0.026318 z"
           id="text1-9-4-9-3-1"
           inkscape:label="findmus"
           transform="scale(1.18418,0.84446622)"
           aria-label="findmus"
           sodipodi:nodetypes="ccscsccccscccccccccccccccccccscccssscccscccccsccccccccsccccccccccsccccccccccssscccsscscccccccsscccccsscccccccsccsccsccccccscccccccsscscccscccscccsccccsscccsccccsccccscss"
           inkscape:path-effect="#path-effect8-0-4-8-1-8"
           inkscape:original-d="m 8.7441204,3.2973031 c 0.017546,-0.102767 0.051383,-0.1992677 0.1015137,-0.2895022 0.052637,-0.092741 0.1203127,-0.1729494 0.2030276,-0.2406253 0.082715,-0.067676 0.180469,-0.1203127 0.2932621,-0.1579104 0.1127931,-0.040104 0.239372,-0.060156 0.3797367,-0.060156 0.077702,0 0.1616701,0.00627 0.2519046,0.018799 0.092741,0.010026 0.1666839,0.021305 0.2218269,0.033838 l -0.116553,0.5075689 c -0.01504,-0.012533 -0.04512,-0.022559 -0.090235,-0.030078 -0.045117,-0.010026 -0.092741,-0.015039 -0.1428713,-0.015039 -0.087728,0 -0.1579103,0.026318 -0.2105471,0.078955 -0.05013,0.052637 -0.081461,0.1203125 -0.093994,0.2030275 l -0.00752,0.037598 H 9.9246881 L 9.8419732,3.8575089 H 9.4509571 L 9.0824996,5.9329018 H 8.2779089 L 8.6463663,3.8575089 H 8.3831824 l 0.082715,-0.4737311 h 0.2631839 z m 1.3798386,0.086475 H 10.92855 L 10.624009,5.1057525 H 9.8194181 Z M 10.545054,3.270985 c -0.07018,0 -0.130339,-0.010026 -0.180469,-0.030078 -0.05013,-0.020052 -0.09149,-0.04637 -0.124073,-0.078955 -0.03008,-0.032585 -0.05139,-0.070182 -0.06392,-0.1127931 -0.01003,-0.042611 -0.01129,-0.085221 -0.0038,-0.1278322 0.01755,-0.087728 0.06768,-0.1654298 0.150391,-0.2331057 0.08272,-0.067676 0.196762,-0.1015138 0.342139,-0.1015138 0.140365,0 0.241879,0.033838 0.304542,0.1015138 0.06266,0.067676 0.08522,0.1453778 0.06768,0.2331057 -0.0075,0.042611 -0.02507,0.085221 -0.05264,0.1278322 -0.02507,0.042611 -0.05891,0.080208 -0.101514,0.1127931 -0.04011,0.032585 -0.08898,0.058903 -0.146631,0.078955 -0.05765,0.020052 -0.121569,0.030078 -0.191748,0.030078 z m 1.500145,1.8347678 0.176709,-1.0038586 c 0.01253,-0.072689 0.0063,-0.1228191 -0.0188,-0.1503908 -0.02507,-0.030078 -0.05765,-0.045117 -0.09775,-0.045117 -0.02757,0 -0.0564,0.00877 -0.08647,0.026318 -0.02757,0.015039 -0.05515,0.036345 -0.08272,0.063916 L 11.74066,5.1057526 H 10.936069 L 11.24061,3.3837779 h 0.804591 l -0.03008,0.1654299 c 0.117806,-0.065169 0.226839,-0.1152996 0.3271,-0.1503908 0.102767,-0.035091 0.194254,-0.052637 0.274463,-0.052637 0.07269,0 0.139111,0.011279 0.199268,0.033838 0.06266,0.022559 0.114043,0.058903 0.15415,0.1090333 0.04261,0.047624 0.07144,0.1102868 0.08648,0.1879885 0.01755,0.077702 0.01628,0.1716962 -0.0038,0.2819827 l -0.202992,1.14673 z m 2.346098,-1.2820816 c -0.0777,0 -0.147884,0.037598 -0.210547,0.1127931 -0.06266,0.072689 -0.107777,0.1867353 -0.135352,0.3421391 -0.02256,0.1278322 -0.02129,0.224333 0.0038,0.2895023 0.02507,0.065169 0.06768,0.097754 0.127832,0.097754 0.0376,0 0.07269,-0.010026 0.105274,-0.030078 0.03259,-0.022559 0.06643,-0.051384 0.101514,-0.086475 L 14.50785,3.8537491 c -0.01504,-0.00752 -0.03259,-0.013786 -0.05264,-0.018799 -0.01755,-0.00752 -0.03885,-0.011279 -0.06392,-0.011279 z m 1.13921,-1.2369643 -0.439893,2.5190459 H 14.34242 l -0.0038,-0.1579104 c -0.0777,0.065169 -0.15791,0.1140464 -0.240625,0.1466311 -0.08271,0.032585 -0.172949,0.048877 -0.270703,0.048877 -0.120313,0 -0.22308,-0.023812 -0.308302,-0.071436 -0.08522,-0.047624 -0.15415,-0.1115401 -0.206787,-0.1917482 -0.05013,-0.080209 -0.08272,-0.1729495 -0.09775,-0.278223 -0.01504,-0.1052735 -0.01254,-0.2155601 0.0075,-0.3308598 0.02256,-0.1278321 0.06517,-0.2481448 0.127832,-0.3609379 0.06266,-0.1127931 0.144122,-0.2105471 0.244385,-0.293262 0.100261,-0.082715 0.216813,-0.1478843 0.349658,-0.1955081 0.132845,-0.05013 0.28073,-0.075195 0.443653,-0.075195 0.04261,0 0.08021,0.00251 0.112793,0.00752 0.03259,0.00251 0.06266,0.00627 0.09023,0.011279 l 0.135352,-0.7782724 z m 2.000196,2.5190459 0.176709,-1.0038586 c 0.01253,-0.072689 0.0075,-0.1228191 -0.01504,-0.1503908 -0.02256,-0.030078 -0.05138,-0.045117 -0.08647,-0.045117 -0.02507,0 -0.04888,0.00501 -0.07144,0.015039 -0.02256,0.010026 -0.04512,0.022559 -0.06768,0.037598 L 17.26376,5.1057525 h -0.804591 l 0.176709,-1.0038586 c 0.01253,-0.072689 0.0075,-0.1228191 -0.01504,-0.1503908 -0.02256,-0.030078 -0.05139,-0.045117 -0.08648,-0.045117 -0.02507,0 -0.04888,0.00501 -0.07144,0.015039 -0.02256,0.010026 -0.04512,0.022559 -0.06768,0.037598 L 16.19221,5.105753 h -0.804591 l 0.304542,-1.7219747 h 0.804591 l -0.03008,0.1654299 c 0.1153,-0.065169 0.220574,-0.1152996 0.315821,-0.1503908 0.09775,-0.035091 0.186735,-0.052637 0.266944,-0.052637 0.09274,0 0.174202,0.020052 0.244385,0.060156 0.07269,0.040104 0.125325,0.1040201 0.15791,0.1917482 0.263184,-0.1679364 0.486264,-0.2519046 0.669239,-0.2519046 0.07018,0 0.134099,0.011279 0.191748,0.033838 0.06015,0.022559 0.110284,0.058903 0.150391,0.1090333 0.04011,0.047624 0.06768,0.1102868 0.08272,0.1879885 0.01504,0.077702 0.01254,0.1716962 -0.0075,0.2819827 l -0.203028,1.1467299 z m 2.13931,-1.7219747 -0.176709,1.0038586 c -0.01253,0.072689 -0.0063,0.1240724 0.0188,0.1541506 0.02507,0.027571 0.05765,0.041357 0.09775,0.041357 0.02757,0 0.05514,-0.00752 0.08271,-0.022559 0.03008,-0.017545 0.0589,-0.040104 0.08647,-0.067676 l 0.195508,-1.1091322 h 0.804591 l -0.304541,1.7219747 h -0.804591 l 0.03008,-0.1691897 c -0.238119,0.1378583 -0.43864,0.2067874 -0.601563,0.2067874 -0.07269,0 -0.140365,-0.011279 -0.203028,-0.033838 C 18.83283,5.0869528 18.780193,5.0518617 18.73758,5.004238 18.697473,4.954108 18.6699,4.8901919 18.65486,4.8124897 18.63982,4.7347878 18.64232,4.6407935 18.66236,4.530507 l 0.203027,-1.1467299 z m 2.049076,0.4812506 c -0.0025,0.017545 0.01376,0.035091 0.04888,0.052637 0.03509,0.015039 0.07896,0.032585 0.131592,0.052637 0.05515,0.020052 0.112797,0.045117 0.17295,0.075195 0.06266,0.030078 0.119056,0.067676 0.169189,0.112793 0.05013,0.045117 0.08773,0.1015139 0.112793,0.1691897 0.02757,0.065169 0.03259,0.1441245 0.01504,0.2368655 -0.03008,0.1729494 -0.124074,0.3133141 -0.281982,0.4210942 -0.155404,0.1052736 -0.369711,0.1579104 -0.642921,0.1579104 -0.120313,0 -0.245638,-0.011279 -0.375977,-0.033838 -0.130339,-0.020052 -0.248145,-0.05013 -0.353418,-0.090234 l 0.124072,-0.4850104 c 0.08021,0.035091 0.167937,0.066423 0.263184,0.093994 0.09525,0.025065 0.190495,0.037598 0.285742,0.037598 0.08272,0 0.136606,-0.00877 0.161671,-0.026318 0.02507,-0.017545 0.03885,-0.032584 0.04136,-0.045117 0.005,-0.022559 -0.01004,-0.042611 -0.04512,-0.060156 -0.03509,-0.017545 -0.07896,-0.037597 -0.131592,-0.060156 -0.05264,-0.025065 -0.109037,-0.052637 -0.16919,-0.082715 -0.06015,-0.030078 -0.115297,-0.067676 -0.16543,-0.1127931 -0.04762,-0.047624 -0.08522,-0.1040206 -0.112793,-0.1691897 -0.02507,-0.067676 -0.02883,-0.1478842 -0.01128,-0.2406252 0.03008,-0.1704429 0.120314,-0.2995284 0.270703,-0.3872563 0.152897,-0.090234 0.357178,-0.1353518 0.612843,-0.1353518 0.127832,0 0.250651,0.011279 0.368457,0.033838 0.117807,0.020052 0.213054,0.05013 0.285743,0.090234 l -0.124073,0.4850103 c -0.06266,-0.035091 -0.140362,-0.06517 -0.233105,-0.090235 -0.09023,-0.027571 -0.182976,-0.041357 -0.278223,-0.041357 -0.05515,0 -0.09149,0.00501 -0.109034,0.015039 -0.01755,0.00752 -0.02757,0.016292 -0.03008,0.026318 z" />
        <path
           style="fill:#ffffff;fill-opacity:1;stroke:none;stroke-width:0;paint-order:fill markers stroke"
           d="M 15.024236,258.10839 C 7.4499452,257.05709 3.4081405,253.6573 1.9562709,247.1162 1.3341996,244.31359 1.4032122,237.88391 2.0968668,234.01733 4.8903302,218.44597 15.983306,205.65383 30.931495,200.76597 36.033465,199.0977 38.352077,198.75 44.375,198.75 c 5.601397,0 7.671452,0.27683 12.257195,1.63915 9.39004,2.78957 17.843493,9.0982 23.430698,17.48585 3.626112,5.44361 6.010822,12.11537 6.838302,19.13167 0.353702,2.9991 0.153675,8.7683 -0.38958,11.23616 -0.551065,2.50333 -1.892185,5.16372 -3.311415,6.56888 -3.438025,3.40392 -8.272858,4.08553 -21.5752,3.04167 -9.314147,-0.73091 -20.446395,-0.78302 -28.5,-0.13341 -6.456275,0.52076 -15.715752,0.71946 -18.100764,0.38842 z m 40.549414,-5.83707 c 8.82689,-1.16456 15.267323,-3.15801 18.997123,-5.88 3.395732,-2.47819 2.468467,-5.41382 -2.502041,-7.92123 C 62.0131,233.39745 40.681905,231.93371 25.625,235.28313 c -7.173021,1.59564 -12.247777,3.91206 -13.383979,6.10923 -0.532765,1.03026 -0.46501,2.88845 0.141077,3.86912 1.810623,2.92965 11.295998,6.11622 21.117902,7.09446 1.5125,0.15064 3.14375,0.31794 3.625,0.37178 2.274372,0.25441 15.550317,-0.074 18.44865,-0.4564 z m 22.536532,-20.16348 c 3.265756,-3.96478 3.514818,-4.34044 3.514818,-5.30144 0,-1.01846 -0.0984,-1.13295 -6.432502,-7.48424 -3.537878,-3.54748 -6.644171,-6.51715 -6.902878,-6.59926 -1.038292,-0.32954 -1.116083,0.13492 -1.65114,9.85862 -0.282415,5.13234 -0.51348,9.58029 -0.51348,9.88434 0,0.47793 0.33018,0.66116 2.4375,1.35264 1.340625,0.4399 3.225,1.18668 4.1875,1.65949 0.9625,0.47281 1.771457,0.86807 1.797682,0.87834 0.02623,0.0103 1.629353,-1.90155 3.5625,-4.24849 z m -60.21747,2.2945 c 1.434008,-0.53497 3.412242,-1.17589 4.396076,-1.42427 1.771801,-0.44731 1.787827,-0.45885 1.687541,-1.21483 -0.05569,-0.41978 -0.384333,-4.75699 -0.730326,-9.63824 -0.345994,-4.88125 -0.685225,-9.12641 -0.753848,-9.43369 -0.07374,-0.33018 -0.379365,-0.62259 -0.747231,-0.71492 -0.540121,-0.13556 -1.077004,0.27388 -4.058692,3.09529 -1.889928,1.78833 -4.814357,4.65928 -6.498732,6.37989 -2.9718582,3.03578 -3.0625,3.16069 -3.0625,4.22045 0,0.73275 0.1850848,1.35097 0.5625,1.87887 1.0268065,1.43622 6.288261,7.82411 6.444411,7.82411 0.08443,0 1.326793,-0.4377 2.760801,-0.97266 z m 35.153665,-14.87305 c 3.021625,-9.86071 3.331773,-11.04313 3.065313,-11.68642 -0.21103,-0.50947 -0.557982,-0.78447 -1.204073,-0.95435 C 54.408428,206.75726 50.175,206.47424 45.5,206.25959 c -4.675,-0.21465 -9.07693,-0.45163 -9.782065,-0.52662 -1.105235,-0.11754 -1.378218,-0.0536 -1.979167,0.46328 -0.467483,0.40211 -0.696281,0.83911 -0.694611,1.32668 0.0018,0.52014 5.488871,19.90102 6.434455,22.72707 0.05209,0.15568 1.99314,0.25 5.144823,0.25 h 5.061172 z"
           id="path9-7-5-4"
           inkscape:label="ext"
           transform="matrix(0.10464484,0,0,0.10464484,-0.13842794,-20.764172)" />
        <path
           style="fill:#ffffff;fill-opacity:1;stroke:none;stroke-width:0;paint-order:fill markers stroke"
           d="m 40.145639,250.43825 c -11.611183,-0.47212 -21.293752,-2.74043 -24.500087,-5.73958 -1.234624,-1.15485 -1.243178,-1.7523 -0.04216,-2.94463 2.418023,-2.40053 9.59767,-4.48434 18.521605,-5.37568 5.845281,-0.58385 13.865996,-0.60777 19.625,-0.0585 8.534615,0.81393 15.452384,2.64761 18.521881,4.90956 2.353548,1.73436 1.802318,3.19341 -1.896881,5.02088 -4.255586,2.10234 -11.05541,3.51084 -19.5625,4.05215 -2.920235,0.18581 -7.883364,0.24902 -10.666861,0.13584 z m -2.83631,-2.61397 c 0.20667,-0.76751 1.090079,-1.97463 1.990859,-2.72037 0.94933,-0.78593 2.708088,-1.69384 3.887312,-2.00672 1.205789,-0.31993 3.282631,-0.28778 4.549379,0.0704 2.763019,0.78131 5.603547,2.80213 6.287794,4.47327 L 54.25,248.19121 55,248.11678 c 7.74934,-0.76905 12.396394,-1.74404 14.888023,-3.12365 3.35091,-1.85538 1.626896,-3.93669 -4.504295,-5.43779 C 60.285158,238.30706 53.29425,237.65618 45,237.65755 c -10.343814,0.002 -18.897399,1.04616 -23.5,2.86949 -3.75753,1.48856 -4.068346,3.12157 -0.886989,4.66018 2.764725,1.33711 7.756498,2.34825 14.449489,2.92691 1.065625,0.0921 1.97752,0.17445 2.026433,0.18294 0.04891,0.008 0.14809,-0.20427 0.220396,-0.47279 z"
           id="path10-3-72-3"
           inkscape:label="int"
           transform="matrix(0.10464484,0,0,0.10464484,-0.13842794,-20.764172)" />
      </g>
    </g>
  </g>
</svg>
