<?xml version="1.0" encoding="UTF-8" standalone="no"?>
<!-- Uploaded to: SVG Repo, www.svgrepo.com, Transformed by: SVG Repo Mixer Tools -->

<svg
   fill="#ffffff"
   height="201"
   width="201"
   version="1.1"
   id="Capa_1"
   viewBox="-28.3 -28.3 528.3 528.3"
   xml:space="preserve"
   stroke="#ffffff"
   stroke-width="23.5851"
   sodipodi:docname="like.svg"
   xmlns:inkscape="http://www.inkscape.org/namespaces/inkscape"
   xmlns:sodipodi="http://sodipodi.sourceforge.net/DTD/sodipodi-0.dtd"
   xmlns="http://www.w3.org/2000/svg"
   xmlns:svg="http://www.w3.org/2000/svg"><defs
   id="defs1" /><sodipodi:namedview
   id="namedview1"
   pagecolor="#ffffff"
   bordercolor="#000000"
   borderopacity="0.25"
   inkscape:showpageshadow="2"
   inkscape:pageopacity="0.0"
   inkscape:pagecheckerboard="0"
   inkscape:deskcolor="#d1d1d1"
   inkscape:export-bgcolor="#ffffff00" />





<g
   id="SVGRepo_iconCarrier"
   style="display:inline;fill:#000000;fill-opacity:1;stroke:#000000;stroke-opacity:1"> <g
   id="g1"
   style="fill:#000000;fill-opacity:1;stroke:#000000;stroke-opacity:1"> <path
   d="m 433.601,67.001 c -24.7,-24.7 -57.4,-38.2 -92.3,-38.2 -34.9,0 -67.7,13.6 -92.4,38.3 l -12.9,12.9 -13.1,-13.1 c -24.7,-24.7 -57.6,-38.4 -92.5,-38.4 -34.8,0 -67.6,13.6 -92.2,38.2 -24.7,24.7 -38.3,57.5 -38.2,92.4 0,34.9 13.7,67.6 38.4,92.3 l 187.8,187.8 c 2.6,2.6 6.1,4 9.5,4 3.4,0 6.9,-1.3 9.5,-3.9 l 188.2,-187.5 c 24.7,-24.7 38.3,-57.5 38.3,-92.4 0.1,-34.9 -13.4,-67.7 -38.1,-92.4 z m -19.2,165.7 -178.7,178 -178.3,-178.3 c -19.6,-19.6 -30.4,-45.6 -30.4,-73.3 0,-27.7 10.7,-53.7 30.3,-73.2 19.5,-19.5 45.5,-30.3 73.1,-30.3 27.7,0 53.8,10.8 73.4,30.4 l 22.6,22.6 c 5.3,5.3 13.8,5.3 19.1,0 l 22.4,-22.4 c 19.6,-19.6 45.7,-30.4 73.3,-30.4 27.6,0 53.6,10.8 73.2,30.3 19.6,19.6 30.3,45.6 30.3,73.3 0.1,27.7 -10.7,53.7 -30.3,73.3 z"
   id="path1"
   style="fill:#000000;fill-opacity:1;stroke:#000000;stroke-opacity:1" /> </g> </g>

<path
   style="opacity:1;fill:#000000;fill-opacity:1;stroke:#000000;stroke-width:42.9258;stroke-opacity:1"
   d="M 144.44599,300.68802 C 58.782982,214.64587 53.996284,209.48882 48.536433,197.3577 32.60788,161.96643 39.660233,122.71831 66.830192,95.548346 85.247256,77.131283 105.09995,69.045294 131.73941,69.110869 c 27.91087,0.06871 44.62978,8.358189 73.91275,36.647061 28.23241,27.27396 33.68762,26.94344 65.59699,-3.97444 25.37656,-24.588039 42.73955,-32.711011 69.92027,-32.711011 23.34008,0 43.20298,7.737815 60.54223,23.584907 31.30359,28.609734 38.87796,72.158054 19.13248,110.000984 -4.86465,9.32328 -20.09322,25.28907 -94.79106,99.38005 -48.94741,48.54972 -89.5463,88.48357 -90.21976,88.74189 -0.67344,0.25837 -41.79773,-40.28324 -91.38732,-90.09229 z"
   id="path2" /></svg>
