<?xml version="1.0" encoding="UTF-8" standalone="no"?>
<!-- Created with Inkscape (http://www.inkscape.org/) -->

<svg
   width="22.634621mm"
   height="15.756605mm"
   viewBox="0 0 22.634621 15.756605"
   version="1.1"
   id="svg1"
   sodipodi:docname="logoNEW.svg"
   inkscape:version="1.3.2 (091e20e, 2023-11-25, custom)"
   xmlns:inkscape="http://www.inkscape.org/namespaces/inkscape"
   xmlns:sodipodi="http://sodipodi.sourceforge.net/DTD/sodipodi-0.dtd"
   xmlns="http://www.w3.org/2000/svg"
   xmlns:svg="http://www.w3.org/2000/svg">
  <sodipodi:namedview
     id="namedview1"
     pagecolor="#ffffff"
     bordercolor="#000000"
     borderopacity="0.25"
     inkscape:showpageshadow="2"
     inkscape:pageopacity="0.0"
     inkscape:pagecheckerboard="0"
     inkscape:deskcolor="#d1d1d1"
     inkscape:document-units="mm"
     showguides="true"
     inkscape:zoom="0.70710678"
     inkscape:cx="215.66757"
     inkscape:cy="201.52543"
     inkscape:window-width="1920"
     inkscape:window-height="1057"
     inkscape:window-x="1912"
     inkscape:window-y="-8"
     inkscape:window-maximized="1"
     inkscape:current-layer="layer1" />
  <defs
     id="defs1">
    <linearGradient
       id="swatch61"
       inkscape:swatch="solid">
      <stop
         style="stop-color:#ffffff;stop-opacity:1;"
         offset="0"
         id="stop61" />
    </linearGradient>
  </defs>
  <g
     inkscape:label="Capa 1"
     inkscape:groupmode="layer"
     id="layer1"
     inkscape:export-filename="layer1.png"
     inkscape:export-xdpi="400"
     inkscape:export-ydpi="400"
     transform="translate(-0.40500001,-125.5)">
    <g
       id="g58-6-7-6"
       transform="matrix(2.5283936,0,0,2.5283936,-0.0578173,72.189607)"
       inkscape:label="testB&amp;W">
      <g
         id="g57-2-5-5-0-7"
         inkscape:label="logoNoBG"
         transform="translate(0.16136456,21.050699)"
         inkscape:export-filename="NEWlogo"
         inkscape:export-xdpi="300"
         inkscape:export-ydpi="300">
        <path
           style="fill:#000;fill-opacity:1;stroke:none;stroke-width:0;paint-order:fill markers stroke"
           d="M 15.024236,258.10839 C 7.4499452,257.05709 3.4081405,253.6573 1.9562709,247.1162 1.3341996,244.31359 1.4032122,237.88391 2.0968668,234.01733 4.8903302,218.44597 15.983306,205.65383 30.931495,200.76597 36.033465,199.0977 38.352077,198.75 44.375,198.75 c 5.601397,0 7.671452,0.27683 12.257195,1.63915 9.39004,2.78957 17.843493,9.0982 23.430698,17.48585 3.626112,5.44361 6.010822,12.11537 6.838302,19.13167 0.353702,2.9991 0.153675,8.7683 -0.38958,11.23616 -0.551065,2.50333 -1.892185,5.16372 -3.311415,6.56888 -3.438025,3.40392 -8.272858,4.08553 -21.5752,3.04167 -9.314147,-0.73091 -20.446395,-0.78302 -28.5,-0.13341 -6.456275,0.52076 -15.715752,0.71946 -18.100764,0.38842 z m 40.549414,-5.83707 c 8.82689,-1.16456 15.267323,-3.15801 18.997123,-5.88 3.395732,-2.47819 2.468467,-5.41382 -2.502041,-7.92123 C 62.0131,233.39745 40.681905,231.93371 25.625,235.28313 c -7.173021,1.59564 -12.247777,3.91206 -13.383979,6.10923 -0.532765,1.03026 -0.46501,2.88845 0.141077,3.86912 1.810623,2.92965 11.295998,6.11622 21.117902,7.09446 1.5125,0.15064 3.14375,0.31794 3.625,0.37178 2.274372,0.25441 15.550317,-0.074 18.44865,-0.4564 z m 22.536532,-20.16348 c 3.265756,-3.96478 3.514818,-4.34044 3.514818,-5.30144 0,-1.01846 -0.0984,-1.13295 -6.432502,-7.48424 -3.537878,-3.54748 -6.644171,-6.51715 -6.902878,-6.59926 -1.038292,-0.32954 -1.116083,0.13492 -1.65114,9.85862 -0.282415,5.13234 -0.51348,9.58029 -0.51348,9.88434 0,0.47793 0.33018,0.66116 2.4375,1.35264 1.340625,0.4399 3.225,1.18668 4.1875,1.65949 0.9625,0.47281 1.771457,0.86807 1.797682,0.87834 0.02623,0.0103 1.629353,-1.90155 3.5625,-4.24849 z m -60.21747,2.2945 c 1.434008,-0.53497 3.412242,-1.17589 4.396076,-1.42427 1.771801,-0.44731 1.787827,-0.45885 1.687541,-1.21483 -0.05569,-0.41978 -0.384333,-4.75699 -0.730326,-9.63824 -0.345994,-4.88125 -0.685225,-9.12641 -0.753848,-9.43369 -0.07374,-0.33018 -0.379365,-0.62259 -0.747231,-0.71492 -0.540121,-0.13556 -1.077004,0.27388 -4.058692,3.09529 -1.889928,1.78833 -4.814357,4.65928 -6.498732,6.37989 -2.9718582,3.03578 -3.0625,3.16069 -3.0625,4.22045 0,0.73275 0.1850848,1.35097 0.5625,1.87887 1.0268065,1.43622 6.288261,7.82411 6.444411,7.82411 0.08443,0 1.326793,-0.4377 2.760801,-0.97266 z m 35.153665,-14.87305 c 3.021625,-9.86071 3.331773,-11.04313 3.065313,-11.68642 -0.21103,-0.50947 -0.557982,-0.78447 -1.204073,-0.95435 C 54.408428,206.75726 50.175,206.47424 45.5,206.25959 c -4.675,-0.21465 -9.07693,-0.45163 -9.782065,-0.52662 -1.105235,-0.11754 -1.378218,-0.0536 -1.979167,0.46328 -0.467483,0.40211 -0.696281,0.83911 -0.694611,1.32668 0.0018,0.52014 5.488871,19.90102 6.434455,22.72707 0.05209,0.15568 1.99314,0.25 5.144823,0.25 h 5.061172 z"
           id="path9-7-5-4"
           inkscape:label="ext"
           transform="matrix(0.10464484,0,0,0.10464484,-0.13842794,-20.764172)" />
        <path
           style="fill:#000;fill-opacity:1;stroke:none;stroke-width:0;paint-order:fill markers stroke"
           d="m 40.145639,250.43825 c -11.611183,-0.47212 -21.293752,-2.74043 -24.500087,-5.73958 -1.234624,-1.15485 -1.243178,-1.7523 -0.04216,-2.94463 2.418023,-2.40053 9.59767,-4.48434 18.521605,-5.37568 5.845281,-0.58385 13.865996,-0.60777 19.625,-0.0585 8.534615,0.81393 15.452384,2.64761 18.521881,4.90956 2.353548,1.73436 1.802318,3.19341 -1.896881,5.02088 -4.255586,2.10234 -11.05541,3.51084 -19.5625,4.05215 -2.920235,0.18581 -7.883364,0.24902 -10.666861,0.13584 z m -2.83631,-2.61397 c 0.20667,-0.76751 1.090079,-1.97463 1.990859,-2.72037 0.94933,-0.78593 2.708088,-1.69384 3.887312,-2.00672 1.205789,-0.31993 3.282631,-0.28778 4.549379,0.0704 2.763019,0.78131 5.603547,2.80213 6.287794,4.47327 L 54.25,248.19121 55,248.11678 c 7.74934,-0.76905 12.396394,-1.74404 14.888023,-3.12365 3.35091,-1.85538 1.626896,-3.93669 -4.504295,-5.43779 C 60.285158,238.30706 53.29425,237.65618 45,237.65755 c -10.343814,0.002 -18.897399,1.04616 -23.5,2.86949 -3.75753,1.48856 -4.068346,3.12157 -0.886989,4.66018 2.764725,1.33711 7.756498,2.34825 14.449489,2.92691 1.065625,0.0921 1.97752,0.17445 2.026433,0.18294 0.04891,0.008 0.14809,-0.20427 0.220396,-0.47279 z"
           id="path10-3-72-3"
           inkscape:label="int"
           transform="matrix(0.10464484,0,0,0.10464484,-0.13842794,-20.764172)" />
      </g>
    </g>
  </g>
</svg>
